<?xml version="1.0" encoding="utf-8"?>
<!-- Generator: Adobe Illustrator 27.5.0, SVG Export Plug-In . SVG Version: 6.00 Build 0)  -->
<svg version="1.1" xmlns="http://www.w3.org/2000/svg" xmlns:xlink="http://www.w3.org/1999/xlink" x="0px" y="0px"
	 viewBox="0 0 2300 2000" style="enable-background:new 0 0 2300 2000;" xml:space="preserve">
<g id="background">
	<rect style="fill:#FFFFFF;" width="2300" height="2000"/>
</g>
<g id="obejct">
	<g>
		<polygon style="fill:#E8EAF7;" points="1280.142,705.271 190.826,1336.516 1024.572,1825.311 2113.888,1192.67 		"/>
		<polygon style="fill:#364085;" points="1279.903,657.389 190.838,1245.805 190.857,1289.099 1024.811,1777.538 2113.857,1144.432 
			2113.838,1101.138 		"/>
		<polygon style="fill:#FFFFFF;" points="1280.142,614.15 190.826,1245.395 1024.572,1734.19 2113.888,1101.549 		"/>
		<path style="fill:#E8EAF7;" d="M1848.374,1042.321l82.397-47.818l-9.063-5.293l-82.425,47.832l-207.599-120.481l83.18-48.279
			l-9.064-5.293l-83.207,48.293L1409.421,787.56l83.976-48.74l-9.064-5.307l-84.017,48.768l-205.001-118.973l-9.105,5.279
			l205.015,118.973l-208.325,120.9L977.731,789.39l-9.106,5.279l205.182,119.071l-213.171,123.721L755.301,918.293l-9.106,5.279
			l205.35,119.169l-207.598,120.481l-205.503-119.266l-9.106,5.279L734.855,1168.5l-208.394,120.956L320.79,1170.078l-9.106,5.279
			l205.671,119.378l-121.794,70.68l9.05,5.321l121.85-70.722l213.17,123.721l-122.924,71.336l9.05,5.307l122.967-71.364
			l207.598,120.481l-124.014,71.979l9.05,5.307l124.056-72.006l184.108,106.851l9.092-5.279l-184.109-106.851l208.395-120.956
			l184.038,106.823l9.092-5.293l-184.025-106.809l207.585-120.481l183.954,106.767l9.106-5.279L1408.695,1297.5l213.171-123.721
			l183.885,106.725l9.092-5.279L1630.958,1168.5l208.325-120.9l183.815,106.683l9.091-5.279L1848.374,1042.321z M1400.316,792.84
			l213.185,123.721l-208.324,120.9L1192.005,913.74L1400.316,792.84z M1182.9,919.019l213.17,123.721l-213.17,123.721
			L969.729,1042.74L1182.9,919.019z M960.637,1048.019l213.171,123.721L966.21,1292.221L753.039,1168.5L960.637,1048.019z
			 M535.552,1294.735l208.395-120.956L957.118,1297.5l-208.395,120.956L535.552,1294.735z M965.414,1544.216l-207.598-120.481
			l208.394-120.956l207.598,120.481L965.414,1544.216z M1182.9,1417.981L975.315,1297.5l207.585-120.481l207.598,120.481
			L1182.9,1417.981z M1399.59,1292.221l-207.585-120.481l213.171-123.721L1612.76,1168.5L1399.59,1292.221z M1621.866,1163.221
			l-207.598-120.481l208.325-120.9l207.598,120.481L1621.866,1163.221z"/>
		<ellipse style="fill:#E8EAF7;" cx="1871.39" cy="1073.728" rx="80.497" ry="49.954"/>
		<g>
			<polygon style="fill:#91DAFB;" points="1199.254,196.416 1199.254,644.834 1495.851,815.236 1495.851,367.918 			"/>
			<g>
				<polygon style="fill:#FFFFFF;" points="1217.805,417.761 1217.805,472.73 1473.5,620.581 1473.5,565.612 				"/>
				<polygon style="fill:#FFFFFF;" points="1217.805,550.604 1473.5,698.455 1473.5,643.485 1217.805,495.634 				"/>
				<polygon style="fill:#FFFFFF;" points="1217.805,628.478 1473.5,776.329 1473.5,721.359 1217.805,573.508 				"/>
				<polygon style="fill:#FFFFFF;" points="1345.745,352.789 1217.805,278.81 1217.805,333.78 1345.745,407.758 				"/>
			</g>
			<polygon style="fill:#4D86ED;" points="1495.384,367.372 1515.234,355.157 1220.536,182.613 1199.159,196.356 			"/>
			<polygon style="fill:#4D86ED;" points="1495.384,367.372 1495.384,816.29 1512.18,804.075 1515.234,355.157 			"/>
		</g>
		<g>
			<polygon style="fill:#A067F4;" points="1749.823,617.377 1749.823,781.429 1734.692,791.128 1733.888,791.646 1718.765,782.902 
				1718.765,635.694 1734.612,626.344 			"/>
			<polygon style="fill:#FB79C3;" points="1749.823,617.377 1734.612,626.344 1718.765,635.694 1402.337,452.816 1402.337,435.75 
				1403.746,435.025 1419.331,427.046 			"/>
			<polygon style="fill:#F8778D;" points="1734.692,626.392 1734.692,792.108 1733.888,791.646 1718.765,782.902 1402.337,599.929 
				1402.337,434.213 1403.746,435.025 1734.612,626.344 			"/>
			<g>
				<polygon style="fill:#FFFFFF;" points="1440.999,538.951 1439.589,538.139 1439.589,557.252 1440.999,558.064 1697.086,706.143 
					1697.086,687.03 				"/>
				<polygon style="fill:#FFFFFF;" points="1439.589,575.568 1439.589,594.681 1440.999,595.493 1697.086,743.572 1697.086,724.459 
					1440.999,576.38 				"/>
				<polygon style="fill:#FFFFFF;" points="1621.296,589.849 1515.38,528.604 1515.38,547.717 1621.296,608.962 				"/>
			</g>
		</g>
		<g>
			<polygon style="fill:#A067F4;" points="1274.221,606.03 1274.221,738.079 1262.042,745.886 1261.395,746.303 1249.222,739.265 
				1249.222,620.773 1261.978,613.247 			"/>
			<polygon style="fill:#FB79C3;" points="1274.221,606.03 1261.978,613.247 1249.222,620.773 994.52,473.57 994.52,459.833 
				995.655,459.25 1008.2,452.827 			"/>
			<polygon style="fill:#F8778D;" points="1262.042,613.286 1262.042,746.675 1261.395,746.303 1249.222,739.265 994.52,591.985 
				994.52,458.596 995.655,459.25 1261.978,613.247 			"/>
			<g>
				<polygon style="fill:#FFFFFF;" points="1025.641,542.902 1024.506,542.249 1024.506,557.633 1025.641,558.287 1231.772,677.48 
					1231.772,662.095 				"/>
				<polygon style="fill:#FFFFFF;" points="1024.506,572.376 1024.506,587.761 1025.641,588.415 1231.772,707.607 1231.772,692.223 
					1025.641,573.03 				"/>
				<polygon style="fill:#FFFFFF;" points="1170.767,583.872 1085.512,534.574 1085.512,549.958 1170.767,599.256 				"/>
			</g>
		</g>
		<g>
			<polygon style="fill:#E8EAF7;" points="1670.908,1269.812 1286.508,1494.15 645.513,1126.231 759.448,1059.685 1029.913,901.704 
				1480.923,1160.71 			"/>
			<polygon style="fill:#4346A3;" points="1670.908,1117.107 1670.908,1166.54 1286.508,1390.878 645.513,1022.96 645.513,973.526 
				759.448,906.979 1029.913,798.433 1480.923,1008.005 			"/>
			<polygon style="fill:#4346A3;" points="1670.908,1117.107 1286.508,1341.444 645.513,973.526 759.448,906.979 1029.913,748.999 
				1480.923,1008.005 			"/>
			<g>
				<polygon style="fill:#FFFFFF;" points="954.233,848.455 930.63,834.901 857.54,877.594 881.143,891.148 				"/>
				<polygon style="fill:#FFFFFF;" points="847.91,883.219 814.301,902.85 837.904,916.404 871.513,896.773 				"/>
			</g>
			<polygon style="fill:#FFFFFF;" points="1553.417,1086.885 1080.265,815.17 756.813,1003.945 1230.217,1275.668 			"/>
			<polygon style="fill:#E8EAF7;" points="1504.99,1081.843 1089.366,843.165 805.241,1008.987 1221.086,1247.673 			"/>
			<polygon style="fill:#364085;" points="1670.908,1117.473 1670.908,1166.54 1286.508,1390.878 1286.508,1343.527 			"/>
			<ellipse style="fill:#FFFFFF;" cx="1454.056" cy="1198.996" rx="39.116" ry="16.275"/>
		</g>
		<g>
			<path style="fill:#FFBD8B;" d="M1090.483,749.638c27.282,23.638,3.983,14.244,3.983,14.244
				c6.207,26.232-19.285,31.465-21.078-12.319"/>
			<path style="fill:#2ED4E2;" d="M1069.864,560.869c-38.859,29.66-18.419,123.481-2.21,196.87c0,0,16.381-2.483,27.333-7.948
				l-10.811-60.706c0,0,8.272-48.012,10.531-79.454"/>
			<path style="fill:#364085;" d="M1095.527,1075.569c-6.44-4.086-13.145-16.771-13.145-16.771l-1.848,18.098l-6.786-0.693
				c0,0-0.921-46.953-0.459-51.477s6.233-5.078,6.233-5.078l-0.054-2.554l-0.51-25.504l26.189,0.959l-8.208,30.02
				c0,0,9.567,23.835,14.31,27.748c1.935,1.592,3.987,1.973,5.87,2.177c2.736,0.296,5.102,0.235,6.169,3.053
				C1125.087,1060.301,1108.754,1080.349,1095.527,1075.569z"/>
			<path style="fill:#FFBD8B;" d="M1117.118,1052.493c-23.137,7.827-33.284-12.787-37.65-35.399l-0.51-25.504l26.189,0.959
				l-8.208,30.02c0,0,9.567,23.835,14.31,27.748C1113.183,1051.908,1115.236,1052.289,1117.118,1052.493z"/>
			<path style="fill:#E26F88;" d="M1149.427,696.792l-72.788-7.966c0,0-10.362,73.783-0.26,173.165
				c-8.045,43.815-5.75,143.321-5.75,143.321l39.328,3.695l19.663-142.653C1129.618,866.354,1144.034,790.563,1149.427,696.792z"/>
			<path style="fill:#364085;" d="M1174.545,1096.032c-6.969-3.098-15.461-14.664-15.461-14.664l0.824,18.173l-6.815,0.309
				c0,0-7.791-46.311-7.998-50.854c-0.206-4.543,5.422-5.937,5.422-5.937l-0.427-2.519l-4.242-25.154l26.047-2.889l-3.72,30.899
				c0,0,12.957,22.175,18.222,25.351c2.147,1.291,4.233,1.367,6.125,1.293c2.749-0.108,5.081-0.515,6.549,2.116
				C1201.548,1076.597,1188.329,1098.822,1174.545,1096.032z"/>
			<path style="fill:#FFBD8B;" d="M1192.521,1070.041c-21.74,11.133-34.799-7.771-42.431-29.5l-4.242-25.154l26.047-2.889
				l-3.72,30.899c0,0,12.957,22.175,18.222,25.351C1188.543,1070.039,1190.629,1070.115,1192.521,1070.041z"/>
			<path style="fill:#F8778D;" d="M1168.75,708.43l-73.12,3.879c0,0,1.675,74.489,27.675,170.939
				c-0.872,44.539,17.443,142.372,17.443,142.372l39.409-2.697l-3.605-143.957C1176.552,878.966,1178.554,801.843,1168.75,708.43z"
				/>
			<path style="fill:#FFBD8B;" d="M1315.317,596.58c68.391-27.502,26.706-0.522,26.706-0.522c15.443,9.932-3.4,25.29-20.658,18.906
				L1315.317,596.58z"/>
			<path style="fill:#2ED4E2;" d="M1330.788,617.708l-56.33,16.236l-0.004,0.004l-35.144,10.131
				c-4.974,1.436-10.255,1.379-15.199-0.16l-97.57-30.417l13.211-24.912l11.479-21.646l82.363,40.032l88.083-13.796
				L1330.788,617.708z"/>
			<g style="opacity:0.31;">
				<path style="fill:#2C4E8E;" d="M1274.809,633.568l-35.144,10.131c-4.974,1.436-10.255,1.379-15.199-0.16l-97.57-30.417
					l13.211-24.912C1180.98,623.636,1236.448,644.537,1274.809,633.568z"/>
			</g>
			<path style="fill:#2ED4E2;" d="M1171.741,734.578c0.181,3.542,0.109,6.563-0.378,8.819
				c-49.814,21.896-102.913,3.284-101.271-15.328c8.211-33.94,10.401-61.857,0-79.922c-4.576-7.943-10.209-19.274-12.848-32.648
				c-3.361-17.03-1.872-37.372,12.848-58.223c9.853-9.853,20.802-10.401,52.004,0c41.133,13.713,54.741,22.991,54.741,46.53
				c0,9.306-1.095,56.383-7.116,73.353C1164.778,691.091,1170.903,718.314,1171.741,734.578z"/>
			<g style="opacity:0.31;">
				<path style="fill:#2C4E8E;" d="M1171.363,743.396c-49.814,21.896-102.913,3.284-101.271-15.328
					c8.211-33.94,10.401-61.857,0-79.922c-4.576-7.943-10.209-19.274-12.848-32.648c11.452,25.307,27.776,35.428,54.451,82.462
					c17.09,30.13,39.529,37.908,60.046,36.616C1171.921,738.119,1171.85,741.141,1171.363,743.396z"/>
			</g>
			<path style="fill:#FFBD8B;" d="M1139.436,568.029c0,0-35.404,16.596-35.404-9.958v-24.341c0,0-21.021-15.489-17.702-44.255
				c3.319-28.766,49.787-49.788,71.915-22.128c12.17,17.702,9.49,69.531,5.532,77.447c-5.532,11.064-25.447,1.106-25.447,1.106
				L1139.436,568.029z"/>
			<path style="fill:#0F183F;" d="M1143.861,509.391c0-11.064,17.702-17.702,23.234-27.66c1.281-2.306,2.206-5.026,2.871-7.846
				c1.358-5.757,0.187-11.569-2.856-16.29c-1.987-3.083-4.771-5.7-8.17-7.535c-0.255-0.138-0.489-0.276-0.696-0.414
				c-3.319-2.213-49.787-23.234-71.915,21.021c-22.128,21.021-3.319,55.319,17.702,63.064c0,11.064,29.873,7.745,30.979,0
				C1136.117,525.987,1143.861,509.391,1143.861,509.391z"/>
			<path style="fill:#FFBD8B;" d="M1138.104,546.013l0.603,12.01c-10.898-7.756-11.625-19.397-11.625-19.397
				s5.475,4.187,13.106,8.317C1138.888,546.407,1138.104,546.013,1138.104,546.013z"/>
			
				<ellipse transform="matrix(0.9239 -0.3827 0.3827 0.9239 -103.975 455.8362)" style="fill:#2ED4E2;" cx="1093.835" cy="489.277" rx="18.181" ry="18.181"/>
			<path style="fill:#0F183F;" d="M1096.509,469.681c0.7-1.572,1.097-3.309,1.097-5.141c0-6.994-5.67-12.664-12.664-12.664
				c-3.873,0-7.334,1.743-9.657,4.482c-2.105-2.383-5.174-3.893-8.603-3.893c-6.344,0-11.486,5.143-11.486,11.486
				c0,0.619,0.063,1.222,0.157,1.815c-1.908-0.604-3.939-0.932-6.047-0.932c-11.061,0-20.027,8.966-20.027,20.027
				c0,8.628,5.457,15.981,13.107,18.798c-0.088,0.595-0.148,1.199-0.148,1.818c0,6.832,5.538,12.37,12.37,12.37
				c5.425,0,10.023-3.498,11.691-8.357c3.983,2.673,8.775,4.234,13.932,4.234c13.826,0,25.034-11.208,25.034-25.034
				C1105.264,481.082,1101.865,474.272,1096.509,469.681z"/>
			<circle style="fill:#0F183F;" cx="1140.29" cy="509.923" r="10.158"/>
			
				<ellipse transform="matrix(0.2298 -0.9732 0.9732 0.2298 378.4842 1505.3542)" style="fill:#FFBD8B;" cx="1140.29" cy="513.56" rx="10.158" ry="10.158"/>
		</g>
		<g>
			<g>
				<polygon style="fill:#FB79C3;" points="474.145,991.462 597.5,918.286 729.219,991.462 601.682,1068.821 				"/>
			</g>
			<g>
				<polygon style="fill:#A067F4;" points="601.682,1068.821 601.682,1364.141 729.219,1286.26 729.219,990.94 				"/>
			</g>
			<g>
				<polygon style="fill:#F8778D;" points="474.145,991.985 474.145,1288.874 601.682,1364.141 601.682,1068.821 				"/>
			</g>
		</g>
		<g>
			<g>
				<polygon style="fill:#FB79C3;" points="664.415,1148.405 770.033,1085.75 882.811,1148.405 773.613,1214.64 				"/>
			</g>
			<g>
				<polygon style="fill:#E8EAF7;" points="762.174,1341.13 867.792,1278.475 980.57,1341.13 871.372,1407.365 				"/>
			</g>
			<g>
				<polygon style="fill:#A067F4;" points="773.613,1214.64 773.613,1467.496 882.811,1400.813 882.811,1147.957 				"/>
			</g>
			<g>
				<polygon style="fill:#F8778D;" points="664.415,1148.852 664.415,1403.051 773.613,1467.496 773.613,1214.64 				"/>
			</g>
		</g>
		<g>
			<path style="fill:#F8778D;" d="M1924.085,939.186l-11.955,88.596l-0.137,1.045l-0.118,0.853l-7.918,58.657l-1.472,10.886
				l-0.03,0.206l-0.039,0.285h-0.52c-14.786,12.274-36.243,19.99-60.119,19.99c-23.876,0-45.333-7.717-60.119-19.99h-0.378
				l-0.039-0.344l-0.098-0.854l-0.118-0.976l-7.918-67.973l-0.132-1.084l-0.039-0.373l-10.366-88.925H1924.085z"/>
			<ellipse style="fill:#F4BBC4;" cx="1843.332" cy="939.122" rx="80.758" ry="60.139"/>
			<ellipse style="fill:#364085;" cx="1844.514" cy="935.411" rx="62.35" ry="46.431"/>
			<path style="fill:#4346A3;" d="M1840.848,913.293c30.953,0,56.633,16.798,61.511,38.819c2.914-5.37,4.523-11.238,4.523-17.386
				c0-25.643-27.915-46.43-62.349-46.43s-62.35,20.788-62.35,46.43c0,2.593,0.29,5.135,0.839,7.612
				C1792.263,925.309,1814.67,913.293,1840.848,913.293z"/>
			<path style="fill:#2ED4E2;" d="M1877.453,791.871c0,0-64.918,87.727-35.091,168.436l0,0c4.971-3.628,9.366-7.944,13.056-12.799
				c3.336-4.389,6.095-9.218,8.18-14.377C1896.7,851.246,1877.453,791.871,1877.453,791.871z"/>
			<path style="fill:#3CEBCE;" d="M1816.354,812.964c0,0,56.788,76.741,30.696,147.342h0c-4.348-3.173-8.193-6.949-11.421-11.196
				c-2.918-3.84-5.332-8.064-7.156-12.576C1799.517,864.904,1816.354,812.964,1816.354,812.964z"/>
			<path style="fill:#3CEBCE;" d="M1918.761,827.508c0,0-75.818,58.014-70.297,133.08v0c5.057-1.845,9.797-4.409,14.075-7.595
				c3.867-2.881,7.356-6.272,10.358-10.103C1920.556,882.079,1918.761,827.508,1918.761,827.508z"/>
			<path style="fill:#2ED4E2;" d="M1766.56,791.513c0,0,89.189,76.432,77.295,168.271l0,0c-6.087-2.611-11.735-6.083-16.773-10.289
				c-4.555-3.803-8.61-8.206-12.037-13.116C1760.638,858.429,1766.56,791.513,1766.56,791.513z"/>
			<path style="fill:#2ED4E2;" d="M1987.214,867.222c0,0-104.557,17.058-138.463,93.391l0,0c5.914,0.843,11.894,0.817,17.748-0.061
				c5.292-0.794,10.481-2.285,15.424-4.46C1960.396,921.552,1987.214,867.222,1987.214,867.222z"/>
			<path style="fill:#3CEBCE;" d="M1704.582,867.222c0,0,104.557,17.058,138.463,93.391h0c-5.914,0.843-11.894,0.817-17.747-0.061
				c-5.292-0.794-10.482-2.285-15.425-4.46C1731.401,921.552,1704.582,867.222,1704.582,867.222z"/>
		</g>
	</g>
</g>
</svg>
